<svg
  width="121"
  height="29"
  viewBox="0 0 121 29"
  fill="none"
  xmlns="http://www.w3.org/2000/svg"
>
  <g clipPath="url(#clip0_4115_549)">
    <path
      d="M24.1492 6.99968C24.4508 6.86946 24.7924 6.86746 25.0955 6.99414L27.5139 8.00487C27.9642 8.19306 28.2573 8.63334 28.2573 9.12138V22.8546C28.2573 23.3405 27.9667 23.7793 27.5193 23.9688L17.349 28.2777C16.9255 28.4571 16.4497 28.469 16.0178 28.3112L13.8611 27.5229C13.3838 27.3485 13.0664 26.8945 13.0664 26.3863V12.5805C13.0664 12.0976 13.3535 11.6609 13.7968 11.4695L24.1492 6.99968Z"
      fill="#E3E3E3"
    />
    <path
      d="M21.2952 7.10414C21.4817 7.02036 21.5443 6.78661 21.4249 6.62007L18.9192 3.12449C18.7691 2.91502 18.5601 2.75484 18.3189 2.66436L12.0537 0.313759C11.5106 0.109982 10.8992 0.291331 10.5564 0.757884L1.23352 13.4475C0.918918 13.8757 0.898373 14.4534 1.1817 14.9045L4.15726 19.6421C4.30874 19.8833 4.5209 20.0805 4.77243 20.2139L11.13 23.5862C11.3756 23.7165 11.6708 23.5392 11.6708 23.2614L11.6708 22.2858C11.6708 22.1675 11.6384 22.0513 11.5772 21.9499L8.85954 17.4518C8.6281 17.0688 8.64946 16.5846 8.9137 16.2248L17.2273 4.903C17.3907 4.6804 17.7164 4.66113 17.9061 4.86283L20.0774 7.17169C20.2672 7.37345 20.5637 7.43287 20.8157 7.31962L21.2952 7.10414Z"
      fill="#E3E3E3"
    />
  </g>
  <path
    d="M56.7752 16.7321C56.7752 19.2677 54.7102 21.3227 52.1622 21.3227H45.0068C41.1429 21.3227 37.9332 18.2043 38.0112 14.3611C38.0853 10.658 41.1258 7.67773 44.8661 7.67773H53.3126C53.3126 7.67773 53.3221 7.68152 53.3221 7.68719V9.94086C53.3221 9.94086 53.3183 9.95032 53.3126 9.95032H44.9231C42.4036 9.95032 40.3139 11.9561 40.2949 14.4633C40.2759 16.9914 42.3295 19.0464 44.8642 19.0464H52.2915C52.2915 19.0464 52.3105 19.0464 52.32 19.0464C53.556 19.0558 54.5771 18.0946 54.5771 16.8646V15.646C54.5771 15.646 54.5733 15.6365 54.5676 15.6365H44.8851C44.8851 15.6365 44.8756 15.6327 44.8756 15.6271V13.3734C44.8756 13.3734 44.8794 13.3639 44.8851 13.3639H56.7676C56.7676 13.3639 56.7771 13.3677 56.7771 13.3734V16.7302L56.7752 16.7321Z"
    fill="#E3E3E3"
  />
  <path
    d="M77.4767 18.9498V21.3227H63.0366C60.6027 21.3227 58.9902 19.7086 58.9902 17.7256V11.2749C58.9902 9.29182 60.6027 7.67773 63.0347 7.67773H77.4748V10.0506H63.0347C62.2057 10.0506 61.3481 10.6013 61.3481 11.2768L61.3424 13.0195L75.8395 12.9685V15.3413H61.35L61.3424 17.4342C61.3386 18.2724 62.0212 18.9536 62.8636 18.9536H77.4786L77.4767 18.9498Z"
    fill="#E3E3E3"
  />
  <path
    d="M98.5449 7.74825V19.4575C98.5449 20.2447 97.906 20.9296 96.9153 21.204C96.6243 21.2835 96.3277 21.3232 96.033 21.3232C95.3218 21.3232 94.8198 21.0053 94.3311 20.5834L82.363 10.1003C82.2394 9.99246 82.0474 10.0795 82.0474 10.2422V21.2873H79.6914V9.52507C79.6914 8.74736 80.3246 8.06804 81.3058 7.79745C82.287 7.52686 83.1788 7.73122 83.8614 8.3216L95.8751 18.8463C95.9987 18.9522 96.1889 18.8633 96.1889 18.7025V7.75015H98.5449V7.74825Z"
    fill="#E3E3E3"
  />
  <path
    d="M119.149 14.5277C118.427 13.8086 117.428 13.3639 116.325 13.3639H104.844C104.297 13.3639 103.77 13.4738 103.292 13.6748C103.172 13.7251 103.034 13.6483 103.027 13.5187C102.96 12.1517 103.463 11.5314 104.046 10.9513C104.665 10.3344 105.523 9.95222 106.47 9.95222H116.702C117.33 9.95222 117.839 9.44306 117.839 8.81497C117.839 8.18689 117.33 7.67773 116.702 7.67773H106.208C103.197 7.67773 100.758 10.1055 100.758 13.1009V17.3206C100.758 19.5308 102.559 21.3227 104.78 21.3227H113.707C113.892 21.3227 114.076 21.3152 114.259 21.3L116.31 21.3076C118.522 21.3171 120.317 19.5364 120.317 17.3358C120.317 16.2383 119.87 15.2467 119.149 14.5277ZM117.476 18.5506C117.215 18.8098 116.871 18.9858 116.487 19.035C116.415 19.0445 116.341 19.0501 116.265 19.0501H113.798L110.632 19.0464L107.464 19.0501H104.998C104.928 19.0501 104.861 19.0445 104.795 19.0369H104.747C103.804 19.035 103.042 18.2743 103.042 17.3358C103.042 16.8665 103.234 16.4426 103.542 16.1342C103.85 15.8258 104.278 15.6365 104.749 15.6365H116.171C116.202 15.6365 116.23 15.6365 116.259 15.6384H116.265C117.212 15.6384 117.978 16.401 117.978 17.3433C117.978 17.8145 117.786 18.2403 117.476 18.5506Z"
    fill="#E3E3E3"
  />
  <defs>
    <clipPath id="clip0_4115_549">
      <rect
        width="28.6347"
        height="28.6347"
        fill="white"
        transform="translate(0.619141 0.182617)"
      />
    </clipPath>
  </defs>
</svg>
